<?xml version="1.0" encoding="UTF-8"?>
<svg width="60" height="60" viewBox="0 0 60 60" xmlns="http://www.w3.org/2000/svg">
  <rect width="60" height="60" rx="12" fill="#25D366"/>
  <path d="M30 15C21.7 15 15 21.7 15 30c0 2.6.7 5.2 1.9 7.4L15 45l7.8-2c2.1 1.1 4.5 1.7 7 1.7 8.3 0 15-6.7 15-15s-6.7-15-15-15zm8.8 21.3c-.4 1-1.9 1.9-3.1 2.1-.8.2-1.9.3-3.1-.2-.7-.3-1.7-.7-2.9-1.3-5-2.2-8.3-7.3-8.5-7.6-.2-.3-2-2.7-2-5.1s1.3-3.6 1.7-4.1c.4-.5.9-.6 1.2-.6h.9c.3 0 .7 0 1 .8.3.8 1.1 2.7 1.2 2.9.1.2.2.4.0.7-.1.3-.2.4-.4.6-.2.2-.4.5-.6.7-.2.2-.4.4-.2.8.2.4 1 1.6 2.1 2.6 1.5 1.3 2.7 1.7 3.1 1.9.4.2.6.1.8-.1.2-.2.9-1 1.1-1.4.2-.3.5-.3.8-.2l2.6 1.2c.4.2.6.3.7.5.1.2.1 1-.3 2z" fill="white"/>
</svg>
